# Blender v2.79 (sub 0) OBJ File: ''
# www.blender.org
mtllib Sphere_001.mtl
o Sphere_001_Sphere.001
v 0.039699 0.199582 0.491274
v 0.057635 0.289749 0.442135
v 0.073355 0.368780 0.376005
v 0.086256 0.433640 0.295425
v 0.095843 0.481835 0.203492
v 0.101746 0.511513 0.103740
v 0.103740 0.521534 0.000000
v 0.097686 0.179115 0.491458
v 0.113054 0.272937 0.442135
v 0.143891 0.347383 0.376005
v 0.169198 0.408480 0.295425
v 0.188003 0.453878 0.203492
v 0.199582 0.481834 0.103740
v 0.203493 0.491274 0.000000
v 0.040282 0.097250 0.521545
v 0.164130 0.245637 0.442135
v 0.208897 0.312637 0.376005
v 0.245637 0.367622 0.295425
v 0.272937 0.408480 0.203492
v 0.289749 0.433640 0.103740
v 0.295425 0.442135 0.000000
v 0.208897 0.208897 0.442135
v 0.265876 0.265876 0.376005
v 0.312637 0.312637 0.295425
v 0.347383 0.347383 0.203492
v 0.368780 0.368780 0.103740
v 0.376005 0.376005 0.000000
v 0.081554 0.064731 0.521553
v 0.158795 0.128098 0.491458
v 0.245637 0.164129 0.442135
v 0.312637 0.208897 0.376005
v 0.367622 0.245637 0.295425
v 0.408480 0.272937 0.203492
v 0.433640 0.289749 0.103740
v 0.442135 0.295425 0.000000
v 0.272937 0.113054 0.442135
v 0.347383 0.143891 0.376005
v 0.408480 0.169198 0.295425
v 0.453878 0.188002 0.203492
v 0.481835 0.199582 0.103740
v 0.491274 0.203492 0.000000
v 0.195728 0.057579 0.491458
v 0.289749 0.057634 0.442135
v 0.368780 0.073355 0.376005
v 0.433640 0.086256 0.295425
v 0.481835 0.095843 0.203492
v 0.511513 0.101746 0.103740
v 0.521534 0.103739 0.000000
v 0.102418 0.020372 0.521616
v 0.295425 -0.000000 0.442135
v 0.376005 -0.000000 0.376005
v 0.442135 -0.000000 0.295425
v 0.491274 -0.000000 0.203492
v 0.521534 -0.000000 0.103740
v 0.531752 -0.000000 0.000000
v 0.202509 -0.018752 0.491620
v 0.289749 -0.057635 0.442135
v 0.368780 -0.073355 0.376005
v 0.433640 -0.086256 0.295425
v 0.481835 -0.095843 0.203492
v 0.511513 -0.101746 0.103740
v 0.521534 -0.103740 0.000000
v 0.099902 -0.030305 0.521526
v 0.272937 -0.113055 0.442135
v 0.347383 -0.143891 0.376005
v 0.408480 -0.169198 0.295425
v 0.453878 -0.188003 0.203492
v 0.481834 -0.199583 0.103740
v 0.491274 -0.203493 0.000000
v 0.079398 -0.067358 0.521553
v 0.181041 -0.095956 0.491171
v 0.245637 -0.164130 0.442135
v 0.312637 -0.208897 0.376005
v 0.367622 -0.245637 0.295425
v 0.408480 -0.272938 0.203492
v 0.433640 -0.289749 0.103740
v 0.442135 -0.295425 0.000000
v 0.208897 -0.208897 0.442135
v 0.265876 -0.265876 0.376005
v 0.312637 -0.312637 0.295425
v 0.347383 -0.347383 0.203492
v 0.368780 -0.368780 0.103740
v 0.376005 -0.376005 0.000000
v 0.129936 -0.156455 0.491620
v 0.164130 -0.245637 0.442135
v 0.208897 -0.312637 0.376005
v 0.245637 -0.367622 0.295425
v 0.272937 -0.408480 0.203492
v 0.289749 -0.433640 0.103740
v 0.295425 -0.442135 0.000000
v 0.113054 -0.272938 0.442135
v 0.143891 -0.347383 0.376005
v 0.169198 -0.408480 0.295425
v 0.188003 -0.453878 0.203492
v 0.199582 -0.481835 0.103740
v 0.203492 -0.491274 0.000000
v 0.062677 -0.194285 0.491375
v 0.057635 -0.289749 0.442135
v 0.073355 -0.368780 0.376005
v 0.086256 -0.433640 0.295425
v 0.095843 -0.481835 0.203492
v 0.101746 -0.511513 0.103740
v 0.103740 -0.521534 0.000000
v 0.028000 -0.101920 0.521651
v 0.000000 -0.295425 0.442135
v -0.000000 -0.376005 0.376005
v -0.000000 -0.442135 0.295425
v 0.000000 -0.491274 0.203492
v -0.000000 -0.521534 0.103740
v -0.000000 -0.531752 0.000000
v -0.019370 -0.203981 0.491171
v -0.057635 -0.289749 0.442135
v -0.073355 -0.368780 0.376005
v -0.086256 -0.433640 0.295425
v -0.095843 -0.481835 0.203492
v -0.101746 -0.511513 0.103740
v -0.103740 -0.521534 0.000000
v -0.000000 -0.000000 0.531751
v -0.113054 -0.272938 0.442135
v -0.143891 -0.347383 0.376005
v -0.169198 -0.408480 0.295425
v -0.188002 -0.453878 0.203492
v -0.199582 -0.481835 0.103740
v -0.203493 -0.491274 0.000000
v -0.097686 -0.179115 0.491458
v -0.164129 -0.245637 0.442135
v -0.208897 -0.312637 0.376005
v -0.245637 -0.367622 0.295425
v -0.272937 -0.408480 0.203492
v -0.289749 -0.433640 0.103740
v -0.295425 -0.442135 0.000000
v -0.052269 -0.091867 0.521651
v -0.208897 -0.208897 0.442135
v -0.265876 -0.265876 0.376005
v -0.312637 -0.312637 0.295425
v -0.347383 -0.347383 0.203492
v -0.368780 -0.368780 0.103740
v -0.376005 -0.376005 0.000000
v -0.158795 -0.128098 0.491458
v -0.245637 -0.164130 0.442135
v -0.312637 -0.208897 0.376005
v -0.367622 -0.245637 0.295425
v -0.408480 -0.272938 0.203492
v -0.433639 -0.289749 0.103740
v -0.442135 -0.295425 0.000000
v -0.096476 -0.039962 0.521616
v -0.188002 -0.077873 0.491274
v -0.272937 -0.113055 0.442135
v -0.347383 -0.143891 0.376005
v -0.408479 -0.169198 0.295425
v -0.453878 -0.188003 0.203492
v -0.481834 -0.199582 0.103740
v -0.491274 -0.203493 0.000000
v -0.289749 -0.057635 0.442135
v -0.368780 -0.073355 0.376005
v -0.433639 -0.086256 0.295425
v -0.481835 -0.095843 0.203492
v -0.511513 -0.101746 0.103740
v -0.521534 -0.103740 0.000000
v -0.103894 0.010233 0.521526
v -0.203481 -0.016444 0.491375
v -0.295425 -0.000000 0.442135
v -0.376005 -0.000000 0.376005
v -0.442135 -0.000000 0.295425
v -0.491274 -0.000000 0.203492
v -0.521534 -0.000000 0.103740
v -0.531751 -0.000000 0.000000
v -0.289749 0.057634 0.442135
v -0.368780 0.073355 0.376005
v -0.433639 0.086256 0.295425
v -0.481834 0.095843 0.203492
v -0.511513 0.101746 0.103740
v -0.521534 0.103739 0.000000
v -0.195054 0.059169 0.491376
v -0.272937 0.113054 0.442135
v -0.347383 0.143891 0.376005
v -0.408479 0.169198 0.295425
v -0.453878 0.188002 0.203492
v -0.481834 0.199582 0.103740
v -0.491274 0.203492 0.000000
v -0.169198 0.113054 0.491274
v -0.245637 0.164129 0.442135
v -0.312637 0.208897 0.376005
v -0.367622 0.245637 0.295425
v -0.408480 0.272937 0.203492
v -0.433639 0.289749 0.103740
v -0.442135 0.295425 0.000000
v -0.128754 0.156887 0.491839
v -0.208897 0.208897 0.442135
v -0.265876 0.265876 0.376005
v -0.312636 0.312636 0.295425
v -0.347383 0.347383 0.203492
v -0.368780 0.368780 0.103740
v -0.376005 0.376005 0.000000
v -0.081312 0.066731 0.521684
v -0.164129 0.245637 0.442135
v -0.208897 0.312637 0.376005
v -0.245637 0.367622 0.295425
v -0.272937 0.408479 0.203492
v -0.289748 0.433639 0.103740
v -0.295425 0.442135 0.000000
v -0.077873 0.188002 0.491274
v -0.113054 0.272937 0.442135
v -0.143891 0.347383 0.376005
v -0.169198 0.408479 0.295425
v -0.188002 0.453878 0.203492
v -0.199582 0.481834 0.103740
v -0.203492 0.491274 0.000000
v -0.057635 0.289748 0.442135
v -0.073355 0.368780 0.376005
v -0.086256 0.433639 0.295425
v -0.095843 0.481834 0.203492
v -0.101746 0.511512 0.103740
v -0.103739 0.521534 0.000000
v -0.022830 0.102291 0.521586
v -0.019893 0.201979 0.491839
v 0.000000 0.295425 0.442135
v 0.000000 0.376005 0.376005
v 0.000000 0.442135 0.295425
v 0.000000 0.491274 0.203492
v 0.000000 0.521533 0.103740
v 0.000000 0.531751 0.000000
vn 0.0975 0.9904 0.0976
vn 0.0087 0.1008 0.9949
vn 0.0205 0.2837 0.9587
vn 0.0464 0.4709 0.8810
vn 0.0624 0.6332 0.7715
vn 0.0759 0.7708 0.6326
vn 0.0865 0.8786 0.4696
vn 0.0938 0.9527 0.2890
vn 0.2563 0.8448 0.4696
vn 0.2779 0.9161 0.2890
vn 0.2889 0.9524 0.0975
vn 0.0968 0.2828 0.9543
vn 0.1374 0.4528 0.8810
vn 0.1847 0.6088 0.7715
vn 0.2248 0.7412 0.6326
vn 0.2266 0.4239 0.8769
vn 0.2999 0.5611 0.7715
vn 0.3651 0.6831 0.6326
vn 0.4162 0.7786 0.4696
vn 0.4513 0.8443 0.2890
vn 0.4691 0.8777 0.0975
vn 0.6073 0.7400 0.2890
vn 0.6314 0.7693 0.0976
vn 0.0619 0.0788 0.9950
vn 0.1853 0.2219 0.9573
vn 0.2958 0.3604 0.8846
vn 0.4036 0.4918 0.7715
vn 0.4913 0.5987 0.6326
vn 0.5601 0.6825 0.4696
vn 0.4918 0.4036 0.7715
vn 0.5987 0.4913 0.6326
vn 0.6825 0.5601 0.4696
vn 0.7400 0.6073 0.2890
vn 0.7693 0.6314 0.0975
vn 0.3715 0.3049 0.8769
vn 0.8777 0.4691 0.0976
vn 0.0898 0.0436 0.9950
vn 0.2605 0.1364 0.9558
vn 0.4112 0.2198 0.8846
vn 0.5611 0.2999 0.7715
vn 0.6831 0.3651 0.6326
vn 0.7786 0.4162 0.4696
vn 0.8443 0.4513 0.2890
vn 0.6088 0.1847 0.7715
vn 0.7412 0.2248 0.6326
vn 0.8448 0.2563 0.4696
vn 0.9161 0.2779 0.2890
vn 0.9524 0.2889 0.0976
vn 0.4599 0.1395 0.8769
vn 0.9904 0.0976 0.0976
vn 0.2971 0.0284 0.9544
vn 0.4640 0.0457 0.8846
vn 0.6332 0.0624 0.7715
vn 0.7708 0.0759 0.6326
vn 0.8786 0.0865 0.4696
vn 0.9527 0.0938 0.2890
vn 0.7708 -0.0759 0.6326
vn 0.8786 -0.0865 0.4696
vn 0.9527 -0.0938 0.2890
vn 0.9904 -0.0975 0.0976
vn 0.0998 -0.0067 0.9950
vn 0.4769 -0.0470 0.8777
vn 0.6332 -0.0624 0.7715
vn 0.2877 -0.0855 0.9539
vn 0.4467 -0.1355 0.8844
vn 0.6088 -0.1847 0.7715
vn 0.7412 -0.2248 0.6326
vn 0.8448 -0.2563 0.4696
vn 0.9161 -0.2779 0.2890
vn 0.9524 -0.2889 0.0976
vn 0.6831 -0.3651 0.6326
vn 0.7786 -0.4162 0.4696
vn 0.8443 -0.4513 0.2890
vn 0.8777 -0.4691 0.0976
vn 0.0874 -0.0476 0.9950
vn 0.4252 -0.2273 0.8761
vn 0.5611 -0.2999 0.7715
vn 0.2321 -0.1889 0.9542
vn 0.3600 -0.2954 0.8849
vn 0.4918 -0.4036 0.7715
vn 0.5987 -0.4913 0.6326
vn 0.6825 -0.5601 0.4696
vn 0.7400 -0.6073 0.2890
vn 0.7693 -0.6314 0.0976
vn 0.5601 -0.6825 0.4696
vn 0.6073 -0.7400 0.2890
vn 0.6314 -0.7693 0.0976
vn 0.0576 -0.0828 0.9949
vn 0.3040 -0.3704 0.8777
vn 0.4036 -0.4918 0.7715
vn 0.4913 -0.5987 0.6326
vn 0.2204 -0.4123 0.8840
vn 0.2999 -0.5611 0.7715
vn 0.3651 -0.6831 0.6326
vn 0.4162 -0.7786 0.4696
vn 0.4513 -0.8443 0.2890
vn 0.4691 -0.8777 0.0976
vn 0.1425 -0.2596 0.9551
vn 0.2779 -0.9161 0.2890
vn 0.2889 -0.9524 0.0976
vn 0.1395 -0.4597 0.8770
vn 0.1847 -0.6088 0.7715
vn 0.2248 -0.7412 0.6326
vn 0.2563 -0.8448 0.4696
vn 0.0458 -0.4645 0.8844
vn 0.0624 -0.6332 0.7715
vn 0.0759 -0.7708 0.6326
vn 0.0865 -0.8786 0.4696
vn 0.0938 -0.9527 0.2890
vn 0.0975 -0.9904 0.0976
vn 0.0331 -0.3001 0.9533
vn -0.0938 -0.9527 0.2890
vn -0.0975 -0.9904 0.0976
vn -0.0128 -0.1021 0.9947
vn -0.0473 -0.4798 0.8761
vn -0.0624 -0.6332 0.7715
vn -0.0759 -0.7708 0.6326
vn -0.0865 -0.8786 0.4696
vn -0.1847 -0.6088 0.7715
vn -0.2248 -0.7412 0.6326
vn -0.2563 -0.8448 0.4696
vn -0.2779 -0.9161 0.2890
vn -0.2889 -0.9524 0.0976
vn -0.0870 -0.2850 0.9546
vn -0.1352 -0.4456 0.8849
vn -0.4691 -0.8777 0.0976
vn -0.2266 -0.4239 0.8769
vn -0.2999 -0.5611 0.7715
vn -0.3651 -0.6831 0.6326
vn -0.4162 -0.7786 0.4696
vn -0.4513 -0.8443 0.2890
vn -0.4036 -0.4918 0.7715
vn -0.4913 -0.5987 0.6326
vn -0.5601 -0.6825 0.4696
vn -0.6073 -0.7400 0.2890
vn -0.6314 -0.7693 0.0976
vn -0.1921 -0.2301 0.9540
vn -0.2958 -0.3604 0.8846
vn -0.7693 -0.6314 0.0976
vn -0.0775 -0.0653 0.9949
vn -0.3715 -0.3049 0.8769
vn -0.4918 -0.4036 0.7715
vn -0.5987 -0.4913 0.6326
vn -0.6825 -0.5601 0.4696
vn -0.7400 -0.6073 0.2890
vn -0.6831 -0.3651 0.6326
vn -0.7786 -0.4162 0.4696
vn -0.8443 -0.4513 0.2890
vn -0.8777 -0.4691 0.0976
vn -0.2564 -0.1456 0.9555
vn -0.4112 -0.2198 0.8846
vn -0.5611 -0.2999 0.7715
vn -0.2862 -0.0737 0.9553
vn -0.4528 -0.1374 0.8810
vn -0.6088 -0.1847 0.7715
vn -0.7412 -0.2248 0.6326
vn -0.8448 -0.2563 0.4696
vn -0.9161 -0.2779 0.2890
vn -0.9524 -0.2889 0.0976
vn -0.8786 -0.0865 0.4696
vn -0.9527 -0.0938 0.2890
vn -0.9904 -0.0975 0.0976
vn -0.0992 -0.0129 0.9950
vn -0.4781 -0.0471 0.8770
vn -0.6332 -0.0624 0.7715
vn -0.7708 -0.0759 0.6326
vn -0.2977 0.0332 0.9541
vn -0.4652 0.0458 0.8840
vn -0.6332 0.0624 0.7715
vn -0.7708 0.0759 0.6326
vn -0.8786 0.0865 0.4696
vn -0.9527 0.0938 0.2890
vn -0.9904 0.0976 0.0976
vn -0.8448 0.2563 0.4696
vn -0.9161 0.2779 0.2890
vn -0.9524 0.2889 0.0976
vn -0.0945 0.0350 0.9949
vn -0.4586 0.1391 0.8777
vn -0.6088 0.1847 0.7715
vn -0.7412 0.2248 0.6326
vn -0.4173 0.2231 0.8810
vn -0.5611 0.2999 0.7715
vn -0.6831 0.3651 0.6326
vn -0.7786 0.4162 0.4696
vn -0.8443 0.4513 0.2890
vn -0.8777 0.4691 0.0976
vn -0.2633 0.1282 0.9562
vn -0.7400 0.6073 0.2890
vn -0.7693 0.6314 0.0976
vn -0.2264 0.1966 0.9540
vn -0.3658 0.3002 0.8810
vn -0.4918 0.4036 0.7715
vn -0.5987 0.4913 0.6326
vn -0.6825 0.5601 0.4696
vn -0.3040 0.3704 0.8777
vn -0.4036 0.4918 0.7715
vn -0.4913 0.5987 0.6326
vn -0.5601 0.6825 0.4696
vn -0.6073 0.7400 0.2890
vn -0.6314 0.7693 0.0976
vn -0.4513 0.8443 0.2890
vn -0.4691 0.8777 0.0976
vn -0.0515 0.0874 0.9948
vn -0.1412 0.2483 0.9584
vn -0.2231 0.4173 0.8810
vn -0.2999 0.5611 0.7715
vn -0.3651 0.6831 0.6326
vn -0.4162 0.7786 0.4696
vn -0.1847 0.6088 0.7715
vn -0.2248 0.7412 0.6326
vn -0.2563 0.8448 0.4696
vn -0.2779 0.9161 0.2890
vn -0.2889 0.9524 0.0976
vn -0.0785 0.2872 0.9547
vn -0.1374 0.4528 0.8810
vn -0.0975 0.9904 0.0976
vn -0.0470 0.4769 0.8777
vn -0.0624 0.6332 0.7715
vn -0.0759 0.7708 0.6326
vn -0.0865 0.8786 0.4696
vn -0.0938 0.9527 0.2890
vn 0.0975 0.9904 0.0975
vn 0.0234 0.2852 0.9582
vn 0.0271 0.4649 0.8849
vn 0.1526 0.4402 0.8849
vn 0.4691 0.8777 0.0976
vn 0.1823 0.2316 0.9556
vn 0.2974 0.3563 0.8858
vn 0.2602 0.1237 0.9576
vn 0.4111 0.2153 0.8858
vn 0.9904 0.0975 0.0976
vn 0.4629 0.0430 0.8854
vn 0.9904 -0.0976 0.0976
vn 0.2814 -0.0157 0.9595
vn 0.4452 -0.1289 0.8861
vn 0.2482 -0.1366 0.9590
vn 0.3583 -0.2961 0.8854
vn 0.1583 -0.2326 0.9596
vn 0.2248 -0.4054 0.8860
vn 0.0522 -0.4600 0.8864
vn -0.0340 -0.2715 0.9618
vn -0.1375 -0.4432 0.8858
vn -0.2974 -0.3563 0.8858
vn -0.2113 -0.1793 0.9608
vn -0.4115 -0.2361 0.8803
vn -0.4505 -0.1150 0.8854
vn -0.2798 -0.0396 0.9592
vn -0.4614 0.0514 0.8857
vn -0.2625 0.1022 0.9595
vn -0.4192 0.2028 0.8850
vn -0.3479 0.3096 0.8849
vn -0.1451 0.2413 0.9595
vn -0.2358 0.4016 0.8849
vn -0.1173 0.4507 0.8849
usemtl None
s off
f 222//1 6//1 7//1
f 215//2 118//2 15//2
f 216//3 15//3 1//3
f 217//4 1//4 2//4
f 218//5 2//5 3//5
f 219//6 3//6 4//6
f 220//7 4//7 5//7
f 221//8 5//8 6//8
f 4//9 12//9 5//9
f 5//10 13//10 6//10
f 6//11 14//11 7//11
f 15//12 8//12 1//12
f 1//13 9//13 2//13
f 2//14 10//14 3//14
f 3//15 11//15 4//15
f 8//16 16//16 9//16
f 9//17 17//17 10//17
f 10//18 18//18 11//18
f 11//19 19//19 12//19
f 13//20 19//20 20//20
f 13//21 21//21 14//21
f 19//22 26//22 20//22
f 21//23 26//23 27//23
f 15//24 118//24 28//24
f 15//25 29//25 8//25
f 8//26 22//26 16//26
f 16//27 23//27 17//27
f 17//28 24//28 18//28
f 18//29 25//29 19//29
f 22//30 31//30 23//30
f 24//31 31//31 32//31
f 24//32 33//32 25//32
f 25//33 34//33 26//33
f 27//34 34//34 35//34
f 29//35 30//35 22//35
f 34//36 41//36 35//36
f 28//37 118//37 49//37
f 28//38 42//38 29//38
f 29//39 36//39 30//39
f 30//40 37//40 31//40
f 32//41 37//41 38//41
f 32//42 39//42 33//42
f 34//43 39//43 40//43
f 37//44 43//44 44//44
f 37//45 45//45 38//45
f 38//46 46//46 39//46
f 40//47 46//47 47//47
f 40//48 48//48 41//48
f 42//49 43//49 36//49
f 47//50 55//50 48//50
f 49//51 56//51 42//51
f 42//52 50//52 43//52
f 43//53 51//53 44//53
f 44//54 52//54 45//54
f 45//55 53//55 46//55
f 47//56 53//56 54//56
f 52//57 58//57 59//57
f 52//58 60//58 53//58
f 54//59 60//59 61//59
f 54//60 62//60 55//60
f 49//61 118//61 63//61
f 56//62 57//62 50//62
f 50//63 58//63 51//63
f 63//64 71//64 56//64
f 57//65 71//65 64//65
f 57//66 65//66 58//66
f 58//67 66//67 59//67
f 59//68 67//68 60//68
f 61//69 67//69 68//69
f 61//70 69//70 62//70
f 66//71 73//71 74//71
f 66//72 75//72 67//72
f 68//73 75//73 76//73
f 68//74 77//74 69//74
f 63//75 118//75 70//75
f 71//76 72//76 64//76
f 64//77 73//77 65//77
f 70//78 84//78 71//78
f 71//79 78//79 72//79
f 72//80 79//80 73//80
f 73//81 80//81 74//81
f 74//82 81//82 75//82
f 76//83 81//83 82//83
f 76//84 83//84 77//84
f 80//85 88//85 81//85
f 82//86 88//86 89//86
f 82//87 90//87 83//87
f 70//88 118//88 104//88
f 84//89 85//89 78//89
f 79//90 85//90 86//90
f 80//91 86//91 87//91
f 85//92 97//92 91//92
f 85//93 92//93 86//93
f 86//94 93//94 87//94
f 87//95 94//95 88//95
f 89//96 94//96 95//96
f 89//97 96//97 90//97
f 104//98 97//98 84//98
f 95//99 101//99 102//99
f 95//100 103//100 96//100
f 97//101 98//101 91//101
f 91//102 99//102 92//102
f 92//103 100//103 93//103
f 93//104 101//104 94//104
f 98//105 111//105 105//105
f 99//106 105//106 106//106
f 99//107 107//107 100//107
f 100//108 108//108 101//108
f 102//109 108//109 109//109
f 102//110 110//110 103//110
f 104//111 111//111 97//111
f 109//112 115//112 116//112
f 109//113 117//113 110//113
f 104//114 118//114 132//114
f 111//115 112//115 105//115
f 106//116 112//116 113//116
f 107//117 113//117 114//117
f 107//118 115//118 108//118
f 113//119 119//119 120//119
f 114//120 120//120 121//120
f 114//121 122//121 115//121
f 116//122 122//122 123//122
f 116//123 124//123 117//123
f 132//124 125//124 111//124
f 111//125 119//125 112//125
f 123//126 131//126 124//126
f 125//127 126//127 119//127
f 119//128 127//128 120//128
f 121//129 127//129 128//129
f 121//130 129//130 122//130
f 123//131 129//131 130//131
f 127//132 133//132 134//132
f 128//133 134//133 135//133
f 128//134 136//134 129//134
f 130//135 136//135 137//135
f 131//136 137//136 138//136
f 132//137 139//137 125//137
f 125//138 133//138 126//138
f 137//139 145//139 138//139
f 132//140 118//140 146//140
f 139//141 140//141 133//141
f 134//142 140//142 141//142
f 135//143 141//143 142//143
f 135//144 143//144 136//144
f 137//145 143//145 144//145
f 142//146 149//146 150//146
f 142//147 151//147 143//147
f 144//148 151//148 152//148
f 144//149 153//149 145//149
f 146//150 147//150 139//150
f 139//151 148//151 140//151
f 141//152 148//152 149//152
f 147//153 146//153 161//153
f 147//154 154//154 148//154
f 149//155 154//155 155//155
f 150//156 155//156 156//156
f 150//157 157//157 151//157
f 152//158 157//158 158//158
f 152//159 159//159 153//159
f 156//160 165//160 157//160
f 158//161 165//161 166//161
f 158//162 167//162 159//162
f 146//163 118//163 160//163
f 161//164 162//164 154//164
f 155//165 162//165 163//165
f 155//166 164//166 156//166
f 161//167 160//167 174//167
f 161//168 168//168 162//168
f 163//169 168//169 169//169
f 164//170 169//170 170//170
f 164//171 171//171 165//171
f 166//172 171//172 172//172
f 166//173 173//173 167//173
f 170//174 178//174 171//174
f 172//175 178//175 179//175
f 172//176 180//176 173//176
f 160//177 118//177 195//177
f 174//178 175//178 168//178
f 169//179 175//179 176//179
f 169//180 177//180 170//180
f 175//181 181//181 182//181
f 176//182 182//182 183//182
f 177//183 183//183 184//183
f 177//184 185//184 178//184
f 179//185 185//185 186//185
f 179//186 187//186 180//186
f 195//187 181//187 174//187
f 186//188 192//188 193//188
f 186//189 194//189 187//189
f 195//190 188//190 181//190
f 181//191 189//191 182//191
f 182//192 190//192 183//192
f 184//193 190//193 191//193
f 184//194 192//194 185//194
f 188//195 196//195 189//195
f 189//196 197//196 190//196
f 191//197 197//197 198//197
f 191//198 199//198 192//198
f 193//199 199//199 200//199
f 194//200 200//200 201//200
f 200//201 206//201 207//201
f 200//202 208//202 201//202
f 195//203 118//203 215//203
f 188//204 215//204 202//204
f 196//205 202//205 203//205
f 197//206 203//206 204//206
f 198//207 204//207 205//207
f 198//208 206//208 199//208
f 203//209 210//209 204//209
f 205//210 210//210 211//210
f 205//211 212//211 206//211
f 207//212 212//212 213//212
f 207//213 214//213 208//213
f 215//214 216//214 202//214
f 202//215 209//215 203//215
f 213//216 222//216 214//216
f 216//217 217//217 209//217
f 209//218 218//218 210//218
f 211//219 218//219 219//219
f 211//220 220//220 212//220
f 213//221 220//221 221//221
f 222//222 221//222 6//222
f 216//223 215//223 15//223
f 217//224 216//224 1//224
f 218//5 217//5 2//5
f 219//6 218//6 3//6
f 220//7 219//7 4//7
f 221//8 220//8 5//8
f 4//9 11//9 12//9
f 5//10 12//10 13//10
f 6//11 13//11 14//11
f 1//225 8//225 9//225
f 2//14 9//14 10//14
f 3//15 10//15 11//15
f 9//17 16//17 17//17
f 10//18 17//18 18//18
f 11//19 18//19 19//19
f 13//20 12//20 19//20
f 13//226 20//226 21//226
f 19//22 25//22 26//22
f 21//23 20//23 26//23
f 15//227 28//227 29//227
f 8//228 29//228 22//228
f 16//27 22//27 23//27
f 17//28 23//28 24//28
f 18//29 24//29 25//29
f 22//30 30//30 31//30
f 24//31 23//31 31//31
f 24//32 32//32 33//32
f 25//33 33//33 34//33
f 27//34 26//34 34//34
f 34//36 40//36 41//36
f 28//229 49//229 42//229
f 29//230 42//230 36//230
f 30//40 36//40 37//40
f 32//41 31//41 37//41
f 32//42 38//42 39//42
f 34//43 33//43 39//43
f 37//44 36//44 43//44
f 37//45 44//45 45//45
f 38//46 45//46 46//46
f 40//47 39//47 46//47
f 40//48 47//48 48//48
f 47//231 54//231 55//231
f 42//232 56//232 50//232
f 43//53 50//53 51//53
f 44//54 51//54 52//54
f 45//55 52//55 53//55
f 47//56 46//56 53//56
f 52//57 51//57 58//57
f 52//58 59//58 60//58
f 54//59 53//59 60//59
f 54//233 61//233 62//233
f 56//234 49//234 63//234
f 50//63 57//63 58//63
f 57//235 56//235 71//235
f 57//66 64//66 65//66
f 58//67 65//67 66//67
f 59//68 66//68 67//68
f 61//69 60//69 67//69
f 61//70 68//70 69//70
f 66//71 65//71 73//71
f 66//72 74//72 75//72
f 68//73 67//73 75//73
f 68//74 76//74 77//74
f 63//236 70//236 71//236
f 64//77 72//77 73//77
f 71//237 84//237 78//237
f 72//80 78//80 79//80
f 73//81 79//81 80//81
f 74//82 80//82 81//82
f 76//83 75//83 81//83
f 76//84 82//84 83//84
f 80//85 87//85 88//85
f 82//86 81//86 88//86
f 82//87 89//87 90//87
f 70//238 104//238 84//238
f 79//90 78//90 85//90
f 80//91 79//91 86//91
f 85//239 84//239 97//239
f 85//93 91//93 92//93
f 86//94 92//94 93//94
f 87//95 93//95 94//95
f 89//96 88//96 94//96
f 89//97 95//97 96//97
f 95//99 94//99 101//99
f 95//100 102//100 103//100
f 91//102 98//102 99//102
f 92//103 99//103 100//103
f 93//104 100//104 101//104
f 98//240 97//240 111//240
f 99//106 98//106 105//106
f 99//107 106//107 107//107
f 100//108 107//108 108//108
f 102//109 101//109 108//109
f 102//110 109//110 110//110
f 109//112 108//112 115//112
f 109//113 116//113 117//113
f 104//241 132//241 111//241
f 106//116 105//116 112//116
f 107//117 106//117 113//117
f 107//118 114//118 115//118
f 113//119 112//119 119//119
f 114//120 113//120 120//120
f 114//121 121//121 122//121
f 116//122 115//122 122//122
f 116//123 123//123 124//123
f 111//242 125//242 119//242
f 123//126 130//126 131//126
f 119//128 126//128 127//128
f 121//129 120//129 127//129
f 121//130 128//130 129//130
f 123//131 122//131 129//131
f 127//132 126//132 133//132
f 128//133 127//133 134//133
f 128//134 135//134 136//134
f 130//135 129//135 136//135
f 131//136 130//136 137//136
f 125//243 139//243 133//243
f 137//139 144//139 145//139
f 132//244 146//244 139//244
f 134//142 133//142 140//142
f 135//143 134//143 141//143
f 135//144 142//144 143//144
f 137//145 136//145 143//145
f 142//146 141//146 149//146
f 142//147 150//147 151//147
f 144//148 143//148 151//148
f 144//149 152//149 153//149
f 139//245 147//245 148//245
f 141//152 140//152 148//152
f 147//246 161//246 154//246
f 149//155 148//155 154//155
f 150//156 149//156 155//156
f 150//157 156//157 157//157
f 152//158 151//158 157//158
f 152//159 158//159 159//159
f 156//160 164//160 165//160
f 158//161 157//161 165//161
f 158//162 166//162 167//162
f 161//247 146//247 160//247
f 155//165 154//165 162//165
f 155//166 163//166 164//166
f 161//248 174//248 168//248
f 163//169 162//169 168//169
f 164//170 163//170 169//170
f 164//171 170//171 171//171
f 166//172 165//172 171//172
f 166//173 172//173 173//173
f 170//174 177//174 178//174
f 172//175 171//175 178//175
f 172//176 179//176 180//176
f 160//249 195//249 174//249
f 169//179 168//179 175//179
f 169//180 176//180 177//180
f 175//250 174//250 181//250
f 176//182 175//182 182//182
f 177//183 176//183 183//183
f 177//184 184//184 185//184
f 179//185 178//185 185//185
f 179//186 186//186 187//186
f 186//188 185//188 192//188
f 186//189 193//189 194//189
f 181//251 188//251 189//251
f 182//192 189//192 190//192
f 184//193 183//193 190//193
f 184//194 191//194 192//194
f 189//196 196//196 197//196
f 191//197 190//197 197//197
f 191//198 198//198 199//198
f 193//199 192//199 199//199
f 194//200 193//200 200//200
f 200//201 199//201 206//201
f 200//202 207//202 208//202
f 188//252 195//252 215//252
f 196//253 188//253 202//253
f 197//206 196//206 203//206
f 198//207 197//207 204//207
f 198//208 205//208 206//208
f 203//209 209//209 210//209
f 205//210 204//210 210//210
f 205//211 211//211 212//211
f 207//212 206//212 212//212
f 207//213 213//213 214//213
f 202//254 216//254 209//254
f 213//216 221//216 222//216
f 209//218 217//218 218//218
f 211//219 210//219 218//219
f 211//220 219//220 220//220
f 213//221 212//221 220//221
